<svg xmlns="http://www.w3.org/2000/svg" width="1200" height="420" viewBox="0 0 1200 420" role="img" aria-label="GitHub activity: 197 contributions, 107 commits, 48 pull requests, 21 code reviews in the last year">
<title>GitHub activity</title>
<style>
text{font-family:'Segoe UI', -apple-system, BlinkMacSystemFont, 'Helvetica Neue', Helvetica, Arial, sans-serif;}
@keyframes fadeUp{from{opacity:0;transform:translateY(12px)}to{opacity:1;transform:translateY(0)}}
.fu{opacity:0;animation:fadeUp .8s cubic-bezier(.2,.7,.2,1) forwards;}
@keyframes rise{from{transform:scaleY(0)}to{transform:scaleY(1)}}
.bar{transform-box:fill-box;transform-origin:center bottom;transform:scaleY(0);animation:rise .9s cubic-bezier(.2,.7,.2,1) forwards;}
</style>
<rect x="1" y="1" width="1198" height="418" rx="24" fill="#ffffff" stroke="#e2e8f0" stroke-width="1.5"/>
<g class="fu" style="animation-delay:0.00s"><text x="40" y="78" font-size="46" font-weight="800" fill="#1a2a4a">197</text><text x="40" y="106" font-size="18" font-weight="600" fill="#475569">contributions <tspan fill="#64748b" font-weight="400">in the last year</tspan></text></g><g class="fu" style="animation-delay:0.12s"><text x="330" y="78" font-size="46" font-weight="800" fill="#1a2a4a">107</text><text x="330" y="106" font-size="18" font-weight="600" fill="#475569">commits <tspan fill="#64748b" font-weight="400">pushed</tspan></text></g><rect x="306" y="44" width="1.5" height="66" fill="#e2e8f0"/><g class="fu" style="animation-delay:0.24s"><text x="620" y="78" font-size="46" font-weight="800" fill="#1a2a4a">48</text><text x="620" y="106" font-size="18" font-weight="600" fill="#475569">pull requests <tspan fill="#64748b" font-weight="400">opened</tspan></text></g><rect x="596" y="44" width="1.5" height="66" fill="#e2e8f0"/><g class="fu" style="animation-delay:0.36s"><text x="910" y="78" font-size="46" font-weight="800" fill="#1a2a4a">21</text><text x="910" y="106" font-size="18" font-weight="600" fill="#475569">code reviews <tspan fill="#64748b" font-weight="400">given</tspan></text></g><rect x="886" y="44" width="1.5" height="66" fill="#e2e8f0"/><text x="40" y="146" font-size="16" font-weight="700" fill="#1a2a4a">Contributions per week<tspan fill="#64748b" font-weight="400">  ·  since 2026-06-28</tspan></text><line x1="88" y1="350.0" x2="1160" y2="350.0" stroke="#e2e8f0" stroke-width="1.5"/><text x="76" y="355.0" text-anchor="end" font-size="13" fill="#64748b">0</text><line x1="88" y1="305.0" x2="1160" y2="305.0" stroke="#e2e8f0" stroke-width="1" stroke-dasharray="3 5"/><text x="76" y="310.0" text-anchor="end" font-size="13" fill="#64748b">20</text><line x1="88" y1="260.0" x2="1160" y2="260.0" stroke="#e2e8f0" stroke-width="1" stroke-dasharray="3 5"/><text x="76" y="265.0" text-anchor="end" font-size="13" fill="#64748b">40</text><line x1="88" y1="215.0" x2="1160" y2="215.0" stroke="#e2e8f0" stroke-width="1" stroke-dasharray="3 5"/><text x="76" y="220.0" text-anchor="end" font-size="13" fill="#64748b">60</text><line x1="88" y1="170.0" x2="1160" y2="170.0" stroke="#e2e8f0" stroke-width="1" stroke-dasharray="3 5"/><text x="76" y="175.0" text-anchor="end" font-size="13" fill="#64748b">80</text><path d="M101.7 350V348.0Q101.7 346.0 103.7 346.0H143.7Q145.7 346.0 145.7 348.0V350Z" fill="#2563eb" class="bar" style="animation-delay:0.30s"><title>Week of 2026-06-28: 1 contributions</title></path><text x="123.7" y="374" text-anchor="middle" font-size="13" fill="#64748b">Jun 28</text><text x="266.7" y="374" text-anchor="middle" font-size="13" fill="#64748b">Jul 12</text><text x="409.6" y="374" text-anchor="middle" font-size="13" fill="#64748b">Jul 26</text><path d="M530.5 350V342.8Q530.5 338.8 534.5 338.8H570.5Q574.5 338.8 574.5 342.8V350Z" fill="#2563eb" class="bar" style="animation-delay:0.66s"><title>Week of 2026-08-09: 5 contributions</title></path><text x="552.5" y="374" text-anchor="middle" font-size="13" fill="#64748b">Aug 9</text><path d="M602.0 350V180.8Q602.0 176.8 606.0 176.8H642.0Q646.0 176.8 646.0 180.8V350Z" fill="#2563eb" class="bar" style="animation-delay:0.72s"><title>Week of 2026-08-16: 77 contributions</title></path><g class="fu" style="animation-delay:1.80s"><text x="624.0" y="164.8" text-anchor="middle" font-size="16" font-weight="700" fill="#1a2a4a">77</text></g><path d="M673.5 350V268.5Q673.5 264.5 677.5 264.5H713.5Q717.5 264.5 717.5 268.5V350Z" fill="#2563eb" class="bar" style="animation-delay:0.78s"><title>Week of 2026-08-23: 38 contributions</title></path><text x="695.5" y="374" text-anchor="middle" font-size="13" fill="#64748b">Aug 23</text><path d="M744.9 350V345.0Q744.9 341.0 748.9 341.0H784.9Q788.9 341.0 788.9 345.0V350Z" fill="#2563eb" class="bar" style="animation-delay:0.84s"><title>Week of 2026-08-30: 4 contributions</title></path><path d="M816.4 350V338.2Q816.4 334.2 820.4 334.2H856.4Q860.4 334.2 860.4 338.2V350Z" fill="#2563eb" class="bar" style="animation-delay:0.90s"><title>Week of 2026-09-06: 7 contributions</title></path><text x="838.4" y="374" text-anchor="middle" font-size="13" fill="#64748b">Sep 6</text><path d="M887.9 350V348.0Q887.9 346.0 889.9 346.0H929.9Q931.9 346.0 931.9 348.0V350Z" fill="#2563eb" class="bar" style="animation-delay:0.96s"><title>Week of 2026-09-13: 1 contributions</title></path><path d="M959.3 350V212.2Q959.3 208.2 963.3 208.2H999.3Q1003.3 208.2 1003.3 212.2V350Z" fill="#2563eb" class="bar" style="animation-delay:1.02s"><title>Week of 2026-09-20: 63 contributions</title></path><text x="981.3" y="374" text-anchor="middle" font-size="13" fill="#64748b">Sep 20</text><path d="M1030.8 350V348.0Q1030.8 346.0 1032.8 346.0H1072.8Q1074.8 346.0 1074.8 348.0V350Z" fill="#2563eb" class="bar" style="animation-delay:1.08s"><title>Week of 2026-09-27: 1 contributions</title></path><text x="1124.3" y="374" text-anchor="middle" font-size="13" fill="#64748b">Oct 4</text><text x="1160" y="402" text-anchor="end" font-size="12" fill="#64748b">updated 2026-10-10 · built by a GitHub Action from the GraphQL API</text></svg>
